<svg width="77" height="62" viewBox="0 0 77 62" fill="none" xmlns="http://www.w3.org/2000/svg">
<path d="M76.5801 38.4501C76.4301 36.5301 76.1201 35.0601 75.6501 34.0601C73.5701 29.6701 69.0301 26.8801 64.2501 25.6201C63.0701 25.3101 61.9501 25.4701 60.7701 25.6001C60.6601 25.6101 60.5601 25.5801 60.4801 25.5101C60.3501 25.4001 60.3601 25.3001 60.5001 25.2101C61.3301 24.6701 62.2701 24.2901 63.0501 23.6801C64.5501 22.5001 65.6901 20.9501 66.4901 19.0001C66.9601 17.8501 66.7101 16.3701 66.2401 15.2801C65.9501 14.6201 65.3701 14.5301 64.7701 14.8101C62.7001 15.7801 60.6501 16.4901 58.6101 16.9401C57.2801 17.2301 56.1301 17.3301 55.1601 17.2301C52.9501 17.0001 50.8001 16.3701 48.7101 15.3301C46.1101 14.0501 43.7001 12.5101 41.5001 10.7101C40.9301 10.2501 40.2901 9.31014 40.6501 8.56014C40.9001 8.03014 41.3101 7.34014 41.8801 6.49014C43.0501 4.96014 43.9001 3.40014 43.5001 1.46014C43.2601 0.270141 41.7101 0.390141 40.9401 0.850141C39.3001 1.84014 37.5201 2.81014 35.6201 3.79014C34.6601 4.28014 33.7401 4.38014 32.8601 4.08014C31.6001 3.65014 30.5301 3.02014 29.3701 2.27014C25.3101 -0.359859 20.3101 -0.539859 15.6701 0.880141C12.0701 1.97014 8.91008 3.73014 6.18008 6.14014C5.33008 7.26014 4.66008 8.26014 4.17008 9.15014C2.99008 11.2901 2.10008 13.6201 1.50008 16.1401C0.740078 19.3401 0.300078 22.6001 0.190078 25.9001C0.170078 27.0501 0.150078 28.2001 0.120078 29.3601C0.0900781 30.9201 -0.0699219 33.6301 0.0400781 35.7801C0.210078 38.6401 0.750078 41.4101 1.66008 44.1001C3.44008 48.9901 6.36008 53.0301 10.4201 56.2201C12.9201 58.2101 15.6501 59.5801 18.6301 60.3301C22.1301 61.2101 25.7701 61.5601 29.5501 61.3801C33.4701 61.1901 37.3301 60.1101 41.1401 58.1401C41.6001 57.9001 41.9401 57.5401 42.1701 57.0501C42.2101 56.9701 42.2101 56.8901 42.1801 56.8101C41.9901 56.2901 41.4101 56.3701 40.9601 56.2701C40.8201 56.2401 40.8201 56.2001 40.9501 56.1401C42.2601 55.6101 43.5001 54.9701 44.6701 54.2101C45.7301 53.5401 46.3901 53.0801 46.6501 52.8301C48.6901 50.8401 50.4001 49.4501 51.8001 48.6601C53.1001 47.9201 55.4801 46.6301 56.9601 46.9801C58.4201 47.3201 59.9401 47.7101 61.5301 48.1201C62.1901 48.2901 62.7201 47.7101 62.9001 47.1301C63.5801 44.9401 61.7601 42.4701 60.0201 41.3201C59.6401 41.0701 59.2101 40.7801 58.7101 40.4601C59.6201 40.1101 60.5101 39.8501 61.3901 39.6501C63.7801 39.1101 66.1001 39.2401 68.3401 40.0201C69.8401 40.5401 71.1501 41.1101 72.0301 42.4401C72.6201 43.3301 73.2301 44.2401 73.8401 45.1601C74.1601 45.6401 74.5501 46.0101 75.0001 46.2801C76.0101 46.8801 76.4701 44.9001 76.5301 44.3501C76.7401 42.3701 76.7601 40.4001 76.5801 38.4401M17.8501 2.77014C19.8101 2.64014 21.7001 2.64014 23.5201 2.77014C26.9001 3.01014 30.5601 4.79014 33.2501 6.75014C33.2501 6.75014 33.2601 6.76014 33.2701 6.77014C33.3001 6.81014 33.2901 6.86014 33.2501 6.88014C31.6501 8.01014 29.9701 9.15014 28.2201 10.3101C26.7601 11.2701 25.3201 11.7701 23.7901 10.9001C23.5501 10.7601 23.5101 10.8101 23.6601 11.0401L24.8901 12.8001C24.9501 12.8801 25.0701 12.9001 25.1601 12.8401C25.7201 12.4201 26.3001 12.0201 26.9001 11.6301C31.2701 8.78014 35.7601 5.85014 40.3701 2.86014C40.6901 2.65014 41.0101 2.53014 41.3501 2.50014C41.3601 2.50014 41.3701 2.50014 41.3801 2.50014C41.4601 2.50014 41.5201 2.58014 41.5101 2.67014C41.4401 3.35014 40.5001 4.27014 40.0401 4.82014L35.9101 9.70014C35.8201 9.81014 35.6801 9.87014 35.5401 9.86014C35.0501 9.83014 34.6201 9.75014 34.2301 9.62014C34.0501 9.56014 34.0101 9.61014 34.1101 9.77014L34.5801 10.5801C34.6601 10.7201 34.6601 10.8801 34.5801 11.0201L33.7601 12.4601C33.7301 12.5101 33.6801 12.5501 33.6301 12.5701C32.3601 12.9701 31.4201 12.0901 30.6101 11.2701C30.5901 11.2501 30.5601 11.2301 30.5201 11.2401C30.4601 11.2401 30.4201 11.2901 30.4201 11.3501C30.4701 12.2201 31.5501 13.1901 32.2101 13.6701C32.3101 13.7501 32.3401 13.8901 32.2601 14.0001C31.8201 14.6201 30.9401 15.8601 30.1601 16.0001C29.0201 16.2001 27.8201 14.9001 27.1701 14.0201C26.9101 13.6701 26.8101 13.7101 26.8601 14.1401C26.9001 14.4401 27.0301 14.7501 27.2401 15.0501C27.6401 15.6301 28.0701 16.1901 28.5001 16.7501C28.9001 17.2601 28.9001 17.8001 28.5101 18.3701C28.1701 18.6601 27.7801 18.7901 27.3101 18.7701C26.1901 18.7201 24.8901 18.1301 24.3201 17.0301C24.3001 16.9801 24.2601 16.9701 24.2101 17.0001L24.1601 17.0301C24.1601 17.0301 24.1101 17.0901 24.1201 17.1301C24.4101 17.9101 24.9601 18.5401 25.0801 19.3701C25.1901 20.1201 25.2601 20.8701 25.2801 21.6201C25.3401 23.5201 24.2101 25.4201 22.7901 26.5601C22.4201 26.8501 22.3001 26.7701 22.4201 26.3201C22.6101 25.5901 22.8001 25.0501 22.6601 24.2201C22.1201 22.1501 20.1001 20.6701 18.1301 19.8101C17.0101 19.3201 15.8201 18.7401 14.5601 18.0701C13.8501 17.7001 13.3001 17.2401 12.9201 16.6901C12.8701 16.6101 12.7901 16.5901 12.7001 16.6201C12.6501 16.6301 12.6301 16.6801 12.6301 16.7301C12.7701 18.4501 13.3901 19.8201 14.5001 20.8501C14.5901 20.9301 14.6501 21.0401 14.6701 21.1601C14.7001 21.3101 14.6401 21.4201 14.5001 21.4801C14.4101 21.5201 14.3201 21.5301 14.2301 21.5001C13.5901 21.3101 12.9501 21.0201 12.3201 20.6001C9.44008 18.7001 8.11008 15.5101 7.96008 12.1001C7.93008 11.4901 8.05008 10.8401 8.30008 10.1601C8.68008 9.13014 9.16008 8.18014 9.75008 7.31014C11.7201 4.53014 14.4101 3.02014 17.8201 2.80014M8.79008 22.8501C8.79008 22.8501 8.79008 22.8201 8.79008 22.8101C8.79008 22.7201 8.87008 22.6401 8.96008 22.6401C8.98008 22.6401 9.00008 22.6401 9.02008 22.6401C9.06008 22.6401 9.10008 22.6601 9.14008 22.6901C10.8401 23.9201 12.5501 24.4401 14.6301 25.0001C15.4701 25.2601 16.3001 25.5101 17.1701 25.6801C18.8101 26.0101 20.2301 26.8201 21.0601 28.3201C22.1801 30.3401 22.3801 32.7301 22.0801 35.0001C22.0501 35.2301 21.9401 35.3101 21.7401 35.2501C21.4501 34.6801 21.2801 34.0401 21.2401 33.3501C21.2401 33.3301 21.2301 33.3101 21.2101 33.3001C21.1901 33.2901 21.1601 33.2801 21.1401 33.3001C21.0901 33.3301 21.0501 33.3701 21.0301 33.4201C20.5601 34.6901 19.8401 35.6201 18.8801 36.2301C17.6901 36.9701 16.3501 37.0201 14.8601 36.3801C11.9601 33.9801 11.4501 31.0701 13.3301 27.6501C13.5301 27.2901 13.7801 27.0301 14.1001 26.7801C14.2201 26.6901 14.2001 26.6201 14.0501 26.5901C13.1701 26.4201 12.1501 26.2601 11.3701 25.8701C11.1401 25.7601 10.9301 25.6501 10.7301 25.5501C9.74008 24.8901 9.09008 23.9901 8.79008 22.8501ZM26.0101 43.9101C26.6901 43.9101 27.2501 44.4701 27.2501 45.1501C27.2501 45.8301 26.6901 46.3901 26.0101 46.3901C25.3301 46.3901 24.7701 45.8401 24.7701 45.1501C24.7701 44.4601 25.3301 43.9101 26.0101 43.9101ZM0.450078 35.1101C0.450078 35.1101 0.420078 35.1101 0.410078 35.1101C0.420078 35.1101 0.440078 35.1101 0.450078 35.1101ZM0.370078 35.1301C0.370078 35.1301 0.340078 35.1301 0.330078 35.1501C0.340078 35.1501 0.350078 35.1401 0.370078 35.1301ZM0.300078 35.1601C0.300078 35.1601 0.280078 35.1701 0.270078 35.1801C0.270078 35.1801 0.290078 35.1701 0.300078 35.1601ZM0.240078 35.2101C0.240078 35.2101 0.220078 35.2301 0.210078 35.2401C0.210078 35.2401 0.230078 35.2201 0.240078 35.2101ZM0.190078 35.2601C0.190078 35.2601 0.180078 35.2801 0.170078 35.2901C0.170078 35.2801 0.180078 35.2701 0.190078 35.2601ZM0.150078 35.3301C0.150078 35.3301 0.140078 35.3501 0.130078 35.3701C0.130078 35.3601 0.140078 35.3501 0.150078 35.3301ZM0.100078 35.4901C0.100078 35.4901 0.100078 35.4901 0.100078 35.4801C0.100078 35.5001 0.100078 35.5201 0.100078 35.5501C0.100078 35.5301 0.100078 35.5101 0.100078 35.5001M0.120078 35.4001C0.120078 35.4001 0.120078 35.4201 0.120078 35.4401C0.120078 35.4301 0.120078 35.4201 0.120078 35.4001ZM74.4301 42.6101C74.2701 42.8601 74.1701 42.8401 74.1301 42.5501C73.8901 40.9501 73.1501 39.7901 71.8901 39.0901C70.9301 38.5501 69.7001 37.9901 68.6301 37.7801C67.5301 37.5601 66.2601 37.4701 64.7901 37.5301C61.8701 37.6401 59.0401 38.2701 56.3001 39.4101C55.8601 39.5901 55.4001 39.7701 54.9301 39.9501C54.7401 40.0201 54.7401 40.0901 54.9301 40.1601L56.5201 40.7501C58.1701 41.6801 59.4801 43.1301 60.6601 44.5801C60.8601 44.8201 60.9501 45.1001 60.9401 45.4101C60.9401 45.5001 60.9001 45.5701 60.8301 45.6201C60.5601 45.8101 60.2801 45.8901 59.9801 45.8501C59.2401 45.7501 58.4801 45.6601 57.7001 45.6001C55.4801 45.4201 53.3601 45.8301 51.3501 46.8201C48.8801 48.0501 46.6301 49.7001 44.6001 51.8001C44.2401 52.1701 43.6201 52.6301 42.7301 53.1701C40.1301 54.7601 37.3201 55.6501 34.2901 55.8301C34.1501 55.8301 34.0501 55.8901 33.9901 55.9901C33.9501 56.0601 33.9701 56.1101 34.0501 56.1401C34.3301 56.2401 34.6101 56.3101 34.8801 56.3601C35.8801 56.5401 36.9201 56.6901 37.9701 56.8201C38.0201 56.8201 38.0601 56.8501 38.0801 56.8901C38.0801 56.8901 38.0901 56.9101 38.1001 56.9201C38.1201 56.9901 38.0801 57.0601 38.0101 57.0901C33.9501 58.4001 29.8301 59.0901 25.6501 59.1701C22.0701 59.2401 18.7501 58.4001 15.6801 56.6501C14.7601 56.1201 13.8801 55.6201 13.0501 55.1401C12.1101 54.6801 11.2301 54.0601 10.4201 53.2801C7.43008 50.3901 5.24008 47.0601 3.84008 43.2801C2.89008 40.7401 2.21008 38.1301 1.80008 35.4801C1.84008 34.9301 1.90008 34.5001 1.97008 34.1801C2.06008 33.7901 2.18008 33.7801 2.34008 34.1401L3.44008 36.5701C3.83008 37.3001 4.42008 37.9301 5.20008 38.4501C6.81008 39.5701 8.64008 40.2601 10.7001 40.5101C12.0001 40.6701 13.3101 40.8301 14.6201 40.9901C15.8401 41.1401 16.8601 41.7101 17.6801 42.7001C18.6601 43.9901 18.9601 44.9801 19.4101 46.3301C19.6101 46.9501 19.8401 47.4101 20.1001 47.7101C21.0801 48.8801 22.3001 49.4401 23.7401 49.4101C25.6401 49.3701 27.7601 48.8001 29.5201 48.2201C31.8101 47.4701 33.6401 45.6701 33.8001 43.1101C33.9201 41.5701 33.7301 40.1001 33.2501 38.7001C32.6801 37.4901 32.2301 36.2001 31.9001 34.8401C31.7501 33.5601 31.7301 32.4701 31.8301 31.5501C32.0301 29.8001 32.7301 27.7501 32.6801 25.7801C32.6401 24.0001 32.5101 22.4101 32.2801 21.0301C32.1401 20.1701 31.8301 19.3201 31.3601 18.4801L30.7501 17.2501C30.6901 17.1301 30.7101 16.9801 30.8001 16.8701L36.9701 9.72014C37.0501 9.63014 37.1801 9.62014 37.2701 9.69014C40.8501 12.4101 44.7601 15.1501 49.0101 17.9101C51.4901 19.5201 54.4201 20.0401 57.3201 19.6701C59.7701 19.3601 62.1801 18.1401 64.1801 16.5501C64.2101 16.5301 64.2501 16.5101 64.2901 16.5201C64.3801 16.5201 64.4401 16.6101 64.4301 16.6901C64.1101 19.6701 62.7101 21.9701 60.2201 23.6001C59.8801 23.8201 59.5301 23.9801 59.1701 24.0901C58.4401 24.3101 57.5901 24.4601 57.0501 25.0201C56.9701 25.1001 56.9701 25.2301 57.0501 25.3101C57.3701 25.6201 57.7301 25.7701 58.1301 25.7901C59.2701 25.8201 60.3901 25.9201 61.4801 26.0801C65.5601 26.6801 68.8801 29.1101 71.9401 32.0701C73.3101 33.4001 74.0401 35.4901 74.3601 37.3101C74.4701 37.9401 74.5501 38.5201 74.6101 39.0401C74.7001 39.9601 74.8501 41.8901 74.3801 42.6201" fill="#E99B4D"/>
</svg>
