<?xml version="1.0" encoding="UTF-8"?>
<svg version="1.1" xmlns="http://www.w3.org/2000/svg" width="800" height="800">
<path d="M0 0 C0.35827881 0.72179443 0.71655762 1.44358887 1.08569336 2.18725586 C2.70089456 5.43836933 4.3191546 8.6879506 5.9375 11.9375 C6.50146484 13.07380859 7.06542969 14.21011719 7.64648438 15.38085938 C8.18466797 16.46044922 8.72285156 17.54003906 9.27734375 18.65234375 C9.77484131 19.65257568 10.27233887 20.65280762 10.78491211 21.68334961 C11.8011857 23.90043783 11.8011857 23.90043783 13 25 C14.60740321 24.87821656 16.20912635 24.68086956 17.80517578 24.45458984 C34.2366207 22.2617627 50.3090182 21.51970055 66.875 21.625 C68.09082764 21.62765869 69.30665527 21.63031738 70.55932617 21.63305664 C88.18709693 21.67827092 105.57363265 22.14620465 123 25 C123.25305908 24.1646875 123.25305908 24.1646875 123.51123047 23.3125 C125.22975905 17.87565874 127.36626242 12.98189607 130.125 8 C130.48464844 7.33355469 130.84429687 6.66710937 131.21484375 5.98046875 C133.83157785 1.16842215 133.83157785 1.16842215 135 0 C139.76974946 -0.21650399 144.00717149 0.24878238 148.65625 1.28515625 C149.91405273 1.56464111 151.17185547 1.84412598 152.46777344 2.13208008 C153.81210645 2.44110203 155.1561767 2.75126898 156.5 3.0625 C157.18839966 3.22027924 157.87679932 3.37805847 158.58605957 3.5406189 C179.64759564 8.38628294 199.91617679 15.0204794 220.05419922 22.87011719 C222.58627838 23.84131414 225.12850571 24.74764313 227.69140625 25.6328125 C237.95088322 29.42341271 242.02821891 35.73037395 246.93408203 45.0234375 C248.43998385 47.81587477 250.15889602 50.45784453 251.875 53.125 C282.26324748 102.79574989 302.27980481 158.07007001 309 216 C309.0864679 216.71739349 309.17293579 217.43478699 309.26202393 218.17391968 C310.93568567 232.34740898 311.31241381 246.40239999 311.26074219 260.66674805 C311.2499801 264.19402111 311.2607293 267.72078868 311.2734375 271.24804688 C311.28168663 281.32707039 311.20393043 291.38558638 310.24609375 301.42578125 C310.18693787 302.14783249 310.12778198 302.86988373 310.0668335 303.61381531 C309.68513585 306.94584265 309.17626345 308.79012672 306.9987793 311.3828125 C304.45721592 313.2628031 301.82447253 314.58061317 299 316 C297.23898572 317.13592142 295.52206926 318.32479808 293.80151367 319.52099609 C263.85387173 340.27057381 229.78372837 356.67941178 195.1875 368 C194.53539551 368.22018799 193.88329102 368.44037598 193.21142578 368.66723633 C189.45984576 369.84521864 186.67961269 370.56030321 183 369 C181.21667024 367.05842255 179.82717479 365.29311546 178.375 363.125 C177.95331543 362.5158374 177.53163086 361.9066748 177.09716797 361.27905273 C172.03917599 353.82375433 167.59556185 345.97980793 163.20019531 338.12158203 C162.41444113 336.73260647 161.61220925 335.35279385 160.79199219 333.98388672 C158 329.30809647 158 329.30809647 158 326 C158.68400879 325.70867187 159.36801758 325.41734375 160.07275391 325.1171875 C172.76433788 319.68799806 185.26985333 314.32347261 197 307 C194.69 305.02 192.38 303.04 190 301 C189.06824951 301.39155273 189.06824951 301.39155273 188.11767578 301.79101562 C172.00371237 308.51571733 155.80633078 314.26049841 139 319 C137.85821289 319.32822754 137.85821289 319.32822754 136.69335938 319.66308594 C76.14912725 336.74335694 5.86375077 328.63407033 -51.125 303.1953125 C-54.36819983 301.84691692 -55.7484408 301.73550475 -59 303 C-60.66710346 304.49985609 -60.66710346 304.49985609 -62 306 C-62.66 306 -63.32 306 -64 306 C-64 306.66 -64 307.32 -64 308 C-63.14792969 308.25523437 -62.29585938 308.51046875 -61.41796875 308.7734375 C-57.82239693 310.06373413 -54.62464629 311.75584499 -51.3125 313.625 C-42.51386174 318.47039802 -33.30045566 322.23576821 -24 326 C-25.50506383 331.1268752 -27.72393767 335.54806647 -30.3125 340.1875 C-30.95433228 341.34270142 -30.95433228 341.34270142 -31.60913086 342.52124023 C-43.52535244 363.52535244 -43.52535244 363.52535244 -50 370 C-57.02076818 369.60492746 -63.12885813 367.42625691 -69.6875 365 C-70.78312256 364.59918213 -71.87874512 364.19836426 -73.00756836 363.78540039 C-88.42729519 358.0736882 -103.46704707 351.60102088 -118.05517578 344.00927734 C-120.03973973 342.97937685 -122.03300798 341.96785897 -124.02734375 340.95703125 C-139.23502891 333.168036 -153.72740287 324.12743393 -167.75 314.375 C-168.47123047 313.87830811 -169.19246094 313.38161621 -169.93554688 312.86987305 C-174.87882556 309.36352333 -174.87882556 309.36352333 -176 306 C-180.63314756 272.31616544 -178.31373645 235.50230056 -173 202 C-172.81808105 200.83452637 -172.63616211 199.66905273 -172.44873047 198.46826172 C-163.3888399 142.44915283 -141.10530735 88.55430001 -110.0703125 41.17578125 C-108.07285958 38.26319752 -108.07285958 38.26319752 -107.05151367 36.01855469 C-103.49365278 29.06785882 -98.14227267 27.24816661 -91.0625 24.625 C-89.8768042 24.16585205 -88.6911084 23.7067041 -87.46948242 23.23364258 C-83.66035441 21.78035281 -79.83702564 20.37738454 -76 19 C-75.36876221 18.77274231 -74.73752441 18.54548462 -74.0871582 18.31134033 C-56.9860614 12.17863541 -39.73505262 6.96035331 -22 3 C-21.21979492 2.82355957 -20.43958984 2.64711914 -19.63574219 2.46533203 C-13.02461138 0.98887542 -6.81892298 -0.15478009 0 0 Z M-43.25 167.75 C-53.77463001 178.93374826 -57.22911251 191.86330005 -57 207 C-55.57977006 219.89237855 -50.68779348 232.44352061 -40.6640625 240.9921875 C-31.72975158 247.98091782 -22.54045174 251.84400066 -11.078125 251.37890625 C-1.13223024 250.15460195 6.75358148 246.93321379 14 240 C14.62519531 239.40316406 15.25039063 238.80632812 15.89453125 238.19140625 C26.79715622 226.76621538 29.62145115 213.16858812 29.30859375 197.9609375 C28.73840954 185.40742133 22.77810001 174.20164383 13.6875 165.625 C-3.86516814 151.13142631 -26.68752774 152.25203447 -43.25 167.75 Z M118.87890625 166.92578125 C108.37976386 178.51631058 104.57660487 191.72901744 104.7265625 207.0546875 C105.61548267 219.8805356 111.48638749 232.00223023 120.6875 240.9375 C130.41255425 249.14347993 141.56912251 251.83077647 154 251 C165.72828556 248.96479751 175.51885507 242.23775283 182.62109375 232.859375 C190.48227767 221.01858925 192.70243011 206.69911843 190.4921875 192.80859375 C187.86366878 180.98025953 182.50790117 170.46680244 172.54296875 163.2109375 C154.89973725 152.20763183 134.64299811 152.2444755 118.87890625 166.92578125 Z " fill="#5764F1" transform="translate(333,215)"/>
</svg>
